<mxfile host="Electron" modified="2023-09-15T17:15:30.092Z" agent="Mozilla/5.0 (Windows NT 10.0; Win64; x64) AppleWebKit/537.36 (KHTML, like Gecko) draw.io/21.6.8 Chrome/114.0.5735.289 Electron/25.5.0 Safari/537.36" etag="3jc4DLcL5iUrKBdUuhRO" version="21.6.8" type="device">
  <diagram id="2Mqe_RlicA9zyREZZuvM" name="Page-1">
    <mxGraphModel dx="2072" dy="128" grid="1" gridSize="10" guides="1" tooltips="1" connect="1" arrows="1" fold="1" page="1" pageScale="1" pageWidth="850" pageHeight="1100" math="0" shadow="0">
      <root>
        <mxCell id="0" />
        <mxCell id="1" parent="0" />
        <mxCell id="z1CVZ9yeo8ocnq3t9K6y-145" style="edgeStyle=orthogonalEdgeStyle;rounded=0;sketch=1;hachureGap=4;jiggle=2;curveFitting=1;orthogonalLoop=1;jettySize=auto;html=1;exitX=0.25;exitY=1;exitDx=0;exitDy=0;entryX=0.5;entryY=1;entryDx=0;entryDy=0;entryPerimeter=0;fontFamily=Architects Daughter;fontSource=https%3A%2F%2Ffonts.googleapis.com%2Fcss%3Ffamily%3DArchitects%2BDaughter;fontSize=17;" parent="1" source="z1CVZ9yeo8ocnq3t9K6y-81" target="z1CVZ9yeo8ocnq3t9K6y-107" edge="1">
          <mxGeometry relative="1" as="geometry">
            <Array as="points">
              <mxPoint x="793" y="1925" />
            </Array>
          </mxGeometry>
        </mxCell>
        <mxCell id="z1CVZ9yeo8ocnq3t9K6y-81" value="" style="rounded=0;whiteSpace=wrap;html=1;sketch=1;hachureGap=4;jiggle=2;curveFitting=1;strokeColor=default;fontFamily=Architects Daughter;fontSource=https%3A%2F%2Ffonts.googleapis.com%2Fcss%3Ffamily%3DArchitects%2BDaughter;fontSize=15;fillColor=default;gradientColor=none;movable=1;resizable=1;rotatable=1;deletable=1;editable=1;connectable=1;" parent="1" vertex="1">
          <mxGeometry x="510" y="1410" width="1130" height="440" as="geometry" />
        </mxCell>
        <mxCell id="z1CVZ9yeo8ocnq3t9K6y-62" value="" style="rounded=0;whiteSpace=wrap;html=1;sketch=1;hachureGap=4;jiggle=2;curveFitting=1;fontFamily=Architects Daughter;fontSource=https%3A%2F%2Ffonts.googleapis.com%2Fcss%3Ffamily%3DArchitects%2BDaughter;fontSize=15;fillColor=#ffcc99;strokeColor=#36393d;" parent="1" vertex="1">
          <mxGeometry x="520" y="1540" width="200" height="300" as="geometry" />
        </mxCell>
        <mxCell id="z1CVZ9yeo8ocnq3t9K6y-64" value="Trip&lt;br&gt;Service" style="rounded=1;whiteSpace=wrap;html=1;sketch=1;hachureGap=4;jiggle=2;curveFitting=1;fontFamily=Architects Daughter;fontSource=https%3A%2F%2Ffonts.googleapis.com%2Fcss%3Ffamily%3DArchitects%2BDaughter;fontSize=15;fillColor=default;gradientColor=none;" parent="1" vertex="1">
          <mxGeometry x="545" y="1560" width="150" height="100" as="geometry" />
        </mxCell>
        <mxCell id="z1CVZ9yeo8ocnq3t9K6y-69" value="Actor" style="shape=umlActor;verticalLabelPosition=bottom;verticalAlign=top;html=1;outlineConnect=0;sketch=1;hachureGap=4;jiggle=2;curveFitting=1;strokeColor=default;fontFamily=Architects Daughter;fontSource=https%3A%2F%2Ffonts.googleapis.com%2Fcss%3Ffamily%3DArchitects%2BDaughter;fontSize=15;fillColor=default;gradientColor=none;" parent="1" vertex="1">
          <mxGeometry x="10" y="1600" width="30" height="60" as="geometry" />
        </mxCell>
        <mxCell id="z1CVZ9yeo8ocnq3t9K6y-70" value="Trip Database" style="shape=cylinder3;whiteSpace=wrap;html=1;boundedLbl=1;backgroundOutline=1;size=15;sketch=1;hachureGap=4;jiggle=2;curveFitting=1;strokeColor=default;fontFamily=Architects Daughter;fontSource=https%3A%2F%2Ffonts.googleapis.com%2Fcss%3Ffamily%3DArchitects%2BDaughter;fontSize=15;fillColor=default;gradientColor=none;" parent="1" vertex="1">
          <mxGeometry x="545" y="1700" width="135" height="130" as="geometry" />
        </mxCell>
        <mxCell id="z1CVZ9yeo8ocnq3t9K6y-71" value="" style="endArrow=classic;startArrow=classic;html=1;rounded=0;sketch=1;hachureGap=4;jiggle=2;curveFitting=1;fontFamily=Architects Daughter;fontSource=https%3A%2F%2Ffonts.googleapis.com%2Fcss%3Ffamily%3DArchitects%2BDaughter;fontSize=15;" parent="1" edge="1">
          <mxGeometry width="50" height="50" relative="1" as="geometry">
            <mxPoint x="615" y="1700" as="sourcePoint" />
            <mxPoint x="615" y="1660" as="targetPoint" />
          </mxGeometry>
        </mxCell>
        <mxCell id="z1CVZ9yeo8ocnq3t9K6y-72" value="API Gateway" style="rounded=0;whiteSpace=wrap;html=1;sketch=1;hachureGap=4;jiggle=2;curveFitting=1;strokeColor=default;fontFamily=Architects Daughter;fontSource=https%3A%2F%2Ffonts.googleapis.com%2Fcss%3Ffamily%3DArchitects%2BDaughter;fontSize=15;fillColor=default;gradientColor=none;" parent="1" vertex="1">
          <mxGeometry x="220" y="1530" width="80" height="230" as="geometry" />
        </mxCell>
        <mxCell id="z1CVZ9yeo8ocnq3t9K6y-90" style="edgeStyle=orthogonalEdgeStyle;rounded=0;sketch=1;hachureGap=4;jiggle=2;curveFitting=1;orthogonalLoop=1;jettySize=auto;html=1;exitX=1;exitY=0.5;exitDx=0;exitDy=0;entryX=0.015;entryY=0.218;entryDx=0;entryDy=0;entryPerimeter=0;fontFamily=Architects Daughter;fontSource=https%3A%2F%2Ffonts.googleapis.com%2Fcss%3Ffamily%3DArchitects%2BDaughter;fontSize=17;" parent="1" source="z1CVZ9yeo8ocnq3t9K6y-77" target="z1CVZ9yeo8ocnq3t9K6y-72" edge="1">
          <mxGeometry relative="1" as="geometry" />
        </mxCell>
        <mxCell id="z1CVZ9yeo8ocnq3t9K6y-77" value="Web app" style="rounded=0;whiteSpace=wrap;html=1;sketch=1;hachureGap=4;jiggle=2;curveFitting=1;strokeColor=default;fontFamily=Architects Daughter;fontSource=https%3A%2F%2Ffonts.googleapis.com%2Fcss%3Ffamily%3DArchitects%2BDaughter;fontSize=15;fillColor=default;gradientColor=none;" parent="1" vertex="1">
          <mxGeometry x="80" y="1550" width="85" height="60" as="geometry" />
        </mxCell>
        <mxCell id="z1CVZ9yeo8ocnq3t9K6y-82" value="&lt;font style=&quot;font-size: 17px;&quot;&gt;&lt;b&gt;Trip Management Subsystem&lt;/b&gt;&lt;/font&gt;" style="text;html=1;align=center;verticalAlign=middle;resizable=0;points=[];autosize=1;strokeColor=none;fillColor=none;fontSize=15;fontFamily=Architects Daughter;sketch=1;hachureGap=4;jiggle=2;curveFitting=1;fontSource=https%3A%2F%2Ffonts.googleapis.com%2Fcss%3Ffamily%3DArchitects%2BDaughter;" parent="1" vertex="1">
          <mxGeometry x="925" y="1440" width="250" height="30" as="geometry" />
        </mxCell>
        <mxCell id="z1CVZ9yeo8ocnq3t9K6y-91" style="edgeStyle=orthogonalEdgeStyle;rounded=0;sketch=1;hachureGap=4;jiggle=2;curveFitting=1;orthogonalLoop=1;jettySize=auto;html=1;exitX=1;exitY=0.5;exitDx=0;exitDy=0;entryX=-0.025;entryY=0.785;entryDx=0;entryDy=0;entryPerimeter=0;fontFamily=Architects Daughter;fontSource=https%3A%2F%2Ffonts.googleapis.com%2Fcss%3Ffamily%3DArchitects%2BDaughter;fontSize=17;" parent="1" source="z1CVZ9yeo8ocnq3t9K6y-84" target="z1CVZ9yeo8ocnq3t9K6y-72" edge="1">
          <mxGeometry relative="1" as="geometry" />
        </mxCell>
        <mxCell id="z1CVZ9yeo8ocnq3t9K6y-84" value="Mobile app" style="rounded=0;whiteSpace=wrap;html=1;sketch=1;hachureGap=4;jiggle=2;curveFitting=1;strokeColor=default;fontFamily=Architects Daughter;fontSource=https%3A%2F%2Ffonts.googleapis.com%2Fcss%3Ffamily%3DArchitects%2BDaughter;fontSize=15;fillColor=default;gradientColor=none;" parent="1" vertex="1">
          <mxGeometry x="80" y="1680" width="85" height="60" as="geometry" />
        </mxCell>
        <mxCell id="z1CVZ9yeo8ocnq3t9K6y-128" style="edgeStyle=orthogonalEdgeStyle;rounded=0;sketch=1;hachureGap=4;jiggle=2;curveFitting=1;orthogonalLoop=1;jettySize=auto;html=1;exitX=1;exitY=0.5;exitDx=0;exitDy=0;fontFamily=Architects Daughter;fontSource=https%3A%2F%2Ffonts.googleapis.com%2Fcss%3Ffamily%3DArchitects%2BDaughter;fontSize=17;entryX=0;entryY=0.386;entryDx=0;entryDy=0;entryPerimeter=0;" parent="1" source="z1CVZ9yeo8ocnq3t9K6y-85" target="z1CVZ9yeo8ocnq3t9K6y-81" edge="1">
          <mxGeometry relative="1" as="geometry">
            <mxPoint x="500" y="1570" as="targetPoint" />
          </mxGeometry>
        </mxCell>
        <mxCell id="z1CVZ9yeo8ocnq3t9K6y-85" value="Web BFF" style="rounded=0;whiteSpace=wrap;html=1;sketch=1;hachureGap=4;jiggle=2;curveFitting=1;strokeColor=default;fontFamily=Architects Daughter;fontSource=https%3A%2F%2Ffonts.googleapis.com%2Fcss%3Ffamily%3DArchitects%2BDaughter;fontSize=15;fillColor=default;gradientColor=none;" parent="1" vertex="1">
          <mxGeometry x="360" y="1550" width="85" height="60" as="geometry" />
        </mxCell>
        <mxCell id="z1CVZ9yeo8ocnq3t9K6y-130" style="edgeStyle=orthogonalEdgeStyle;rounded=0;sketch=1;hachureGap=4;jiggle=2;curveFitting=1;orthogonalLoop=1;jettySize=auto;html=1;exitX=1;exitY=0.5;exitDx=0;exitDy=0;entryX=0;entryY=0.682;entryDx=0;entryDy=0;entryPerimeter=0;fontFamily=Architects Daughter;fontSource=https%3A%2F%2Ffonts.googleapis.com%2Fcss%3Ffamily%3DArchitects%2BDaughter;fontSize=17;" parent="1" source="z1CVZ9yeo8ocnq3t9K6y-86" target="z1CVZ9yeo8ocnq3t9K6y-81" edge="1">
          <mxGeometry relative="1" as="geometry" />
        </mxCell>
        <mxCell id="z1CVZ9yeo8ocnq3t9K6y-86" value="Mobile BFF" style="rounded=0;whiteSpace=wrap;html=1;sketch=1;hachureGap=4;jiggle=2;curveFitting=1;strokeColor=default;fontFamily=Architects Daughter;fontSource=https%3A%2F%2Ffonts.googleapis.com%2Fcss%3Ffamily%3DArchitects%2BDaughter;fontSize=15;fillColor=default;gradientColor=none;" parent="1" vertex="1">
          <mxGeometry x="360" y="1680" width="85" height="60" as="geometry" />
        </mxCell>
        <mxCell id="z1CVZ9yeo8ocnq3t9K6y-95" value="" style="endArrow=classic;html=1;rounded=0;sketch=1;hachureGap=4;jiggle=2;curveFitting=1;fontFamily=Architects Daughter;fontSource=https%3A%2F%2Ffonts.googleapis.com%2Fcss%3Ffamily%3DArchitects%2BDaughter;fontSize=17;entryX=0;entryY=0.5;entryDx=0;entryDy=0;" parent="1" target="z1CVZ9yeo8ocnq3t9K6y-85" edge="1">
          <mxGeometry width="50" height="50" relative="1" as="geometry">
            <mxPoint x="300" y="1580" as="sourcePoint" />
            <mxPoint x="350" y="1530" as="targetPoint" />
          </mxGeometry>
        </mxCell>
        <mxCell id="z1CVZ9yeo8ocnq3t9K6y-96" value="" style="endArrow=classic;html=1;rounded=0;sketch=1;hachureGap=4;jiggle=2;curveFitting=1;fontFamily=Architects Daughter;fontSource=https%3A%2F%2Ffonts.googleapis.com%2Fcss%3Ffamily%3DArchitects%2BDaughter;fontSize=17;entryX=0;entryY=0.5;entryDx=0;entryDy=0;" parent="1" edge="1">
          <mxGeometry width="50" height="50" relative="1" as="geometry">
            <mxPoint x="300" y="1709.5" as="sourcePoint" />
            <mxPoint x="360" y="1709.5" as="targetPoint" />
          </mxGeometry>
        </mxCell>
        <mxCell id="z1CVZ9yeo8ocnq3t9K6y-101" value="" style="endArrow=none;dashed=1;html=1;rounded=0;sketch=1;hachureGap=4;jiggle=2;curveFitting=1;fontFamily=Architects Daughter;fontSource=https%3A%2F%2Ffonts.googleapis.com%2Fcss%3Ffamily%3DArchitects%2BDaughter;fontSize=17;exitX=0.5;exitY=0;exitDx=0;exitDy=0;exitPerimeter=0;entryX=0.25;entryY=1;entryDx=0;entryDy=0;" parent="1" source="ueEnSAnC5jxVS8nruKDC-2" target="z1CVZ9yeo8ocnq3t9K6y-86" edge="1">
          <mxGeometry width="50" height="50" relative="1" as="geometry">
            <mxPoint x="304.52" y="1955.8199999999997" as="sourcePoint" />
            <mxPoint x="347.2613872613872" y="1780" as="targetPoint" />
          </mxGeometry>
        </mxCell>
        <mxCell id="z1CVZ9yeo8ocnq3t9K6y-107" value="" style="shape=cylinder3;whiteSpace=wrap;html=1;boundedLbl=1;backgroundOutline=1;size=15;sketch=0;hachureGap=4;jiggle=2;curveFitting=1;strokeColor=default;fontFamily=Architects Daughter;fontSource=https%3A%2F%2Ffonts.googleapis.com%2Fcss%3Ffamily%3DArchitects%2BDaughter;fontSize=17;fillColor=default;gradientColor=none;direction=south;" parent="1" vertex="1">
          <mxGeometry x="1030" y="1910" width="140" height="30" as="geometry" />
        </mxCell>
        <mxCell id="z1CVZ9yeo8ocnq3t9K6y-108" value="" style="rounded=0;whiteSpace=wrap;html=1;sketch=1;hachureGap=4;jiggle=2;curveFitting=1;fontFamily=Architects Daughter;fontSource=https%3A%2F%2Ffonts.googleapis.com%2Fcss%3Ffamily%3DArchitects%2BDaughter;fontSize=15;fillColor=#ffcc99;strokeColor=#36393d;" parent="1" vertex="1">
          <mxGeometry x="1410" y="1530" width="200" height="300" as="geometry" />
        </mxCell>
        <mxCell id="z1CVZ9yeo8ocnq3t9K6y-109" value="Config&lt;br&gt;Service" style="rounded=1;whiteSpace=wrap;html=1;sketch=1;hachureGap=4;jiggle=2;curveFitting=1;fontFamily=Architects Daughter;fontSource=https%3A%2F%2Ffonts.googleapis.com%2Fcss%3Ffamily%3DArchitects%2BDaughter;fontSize=15;fillColor=default;gradientColor=none;" parent="1" vertex="1">
          <mxGeometry x="1435" y="1560" width="150" height="100" as="geometry" />
        </mxCell>
        <mxCell id="z1CVZ9yeo8ocnq3t9K6y-110" value="Config Database" style="shape=cylinder3;whiteSpace=wrap;html=1;boundedLbl=1;backgroundOutline=1;size=15;sketch=1;hachureGap=4;jiggle=2;curveFitting=1;strokeColor=default;fontFamily=Architects Daughter;fontSource=https%3A%2F%2Ffonts.googleapis.com%2Fcss%3Ffamily%3DArchitects%2BDaughter;fontSize=15;fillColor=default;gradientColor=none;" parent="1" vertex="1">
          <mxGeometry x="1435" y="1700" width="135" height="130" as="geometry" />
        </mxCell>
        <mxCell id="z1CVZ9yeo8ocnq3t9K6y-111" value="" style="endArrow=classic;startArrow=classic;html=1;rounded=0;sketch=1;hachureGap=4;jiggle=2;curveFitting=1;fontFamily=Architects Daughter;fontSource=https%3A%2F%2Ffonts.googleapis.com%2Fcss%3Ffamily%3DArchitects%2BDaughter;fontSize=15;" parent="1" edge="1">
          <mxGeometry width="50" height="50" relative="1" as="geometry">
            <mxPoint x="1505" y="1700" as="sourcePoint" />
            <mxPoint x="1505" y="1660" as="targetPoint" />
          </mxGeometry>
        </mxCell>
        <mxCell id="z1CVZ9yeo8ocnq3t9K6y-112" value="" style="rounded=0;whiteSpace=wrap;html=1;sketch=1;hachureGap=4;jiggle=2;curveFitting=1;fontFamily=Architects Daughter;fontSource=https%3A%2F%2Ffonts.googleapis.com%2Fcss%3Ffamily%3DArchitects%2BDaughter;fontSize=15;fillColor=#ffcc99;strokeColor=#36393d;" parent="1" vertex="1">
          <mxGeometry x="940" y="1530" width="200" height="300" as="geometry" />
        </mxCell>
        <mxCell id="z1CVZ9yeo8ocnq3t9K6y-113" value="Notification&lt;br&gt;Service" style="rounded=1;whiteSpace=wrap;html=1;sketch=1;hachureGap=4;jiggle=2;curveFitting=1;fontFamily=Architects Daughter;fontSource=https%3A%2F%2Ffonts.googleapis.com%2Fcss%3Ffamily%3DArchitects%2BDaughter;fontSize=15;fillColor=default;gradientColor=none;" parent="1" vertex="1">
          <mxGeometry x="965" y="1550" width="150" height="100" as="geometry" />
        </mxCell>
        <mxCell id="z1CVZ9yeo8ocnq3t9K6y-114" value="Notification Database" style="shape=cylinder3;whiteSpace=wrap;html=1;boundedLbl=1;backgroundOutline=1;size=15;sketch=1;hachureGap=4;jiggle=2;curveFitting=1;strokeColor=default;fontFamily=Architects Daughter;fontSource=https%3A%2F%2Ffonts.googleapis.com%2Fcss%3Ffamily%3DArchitects%2BDaughter;fontSize=15;fillColor=default;gradientColor=none;" parent="1" vertex="1">
          <mxGeometry x="965" y="1690" width="135" height="130" as="geometry" />
        </mxCell>
        <mxCell id="z1CVZ9yeo8ocnq3t9K6y-115" value="" style="endArrow=classic;startArrow=classic;html=1;rounded=0;sketch=1;hachureGap=4;jiggle=2;curveFitting=1;fontFamily=Architects Daughter;fontSource=https%3A%2F%2Ffonts.googleapis.com%2Fcss%3Ffamily%3DArchitects%2BDaughter;fontSize=15;" parent="1" edge="1">
          <mxGeometry width="50" height="50" relative="1" as="geometry">
            <mxPoint x="1035" y="1690" as="sourcePoint" />
            <mxPoint x="1035" y="1650" as="targetPoint" />
          </mxGeometry>
        </mxCell>
        <mxCell id="z1CVZ9yeo8ocnq3t9K6y-120" value="" style="rounded=0;whiteSpace=wrap;html=1;sketch=1;hachureGap=4;jiggle=2;curveFitting=1;fontFamily=Architects Daughter;fontSource=https%3A%2F%2Ffonts.googleapis.com%2Fcss%3Ffamily%3DArchitects%2BDaughter;fontSize=15;fillColor=#ffcc99;strokeColor=#36393d;" parent="1" vertex="1">
          <mxGeometry x="1180" y="1530" width="200" height="300" as="geometry" />
        </mxCell>
        <mxCell id="z1CVZ9yeo8ocnq3t9K6y-121" value="Social Media&lt;br&gt;Service" style="rounded=1;whiteSpace=wrap;html=1;sketch=1;hachureGap=4;jiggle=2;curveFitting=1;fontFamily=Architects Daughter;fontSource=https%3A%2F%2Ffonts.googleapis.com%2Fcss%3Ffamily%3DArchitects%2BDaughter;fontSize=15;fillColor=default;gradientColor=none;" parent="1" vertex="1">
          <mxGeometry x="1205" y="1550" width="150" height="100" as="geometry" />
        </mxCell>
        <mxCell id="z1CVZ9yeo8ocnq3t9K6y-122" value="Social Media &lt;br&gt;Database" style="shape=cylinder3;whiteSpace=wrap;html=1;boundedLbl=1;backgroundOutline=1;size=15;sketch=1;hachureGap=4;jiggle=2;curveFitting=1;strokeColor=default;fontFamily=Architects Daughter;fontSource=https%3A%2F%2Ffonts.googleapis.com%2Fcss%3Ffamily%3DArchitects%2BDaughter;fontSize=15;fillColor=default;gradientColor=none;" parent="1" vertex="1">
          <mxGeometry x="1205" y="1690" width="135" height="130" as="geometry" />
        </mxCell>
        <mxCell id="z1CVZ9yeo8ocnq3t9K6y-123" value="" style="endArrow=classic;startArrow=classic;html=1;rounded=0;sketch=1;hachureGap=4;jiggle=2;curveFitting=1;fontFamily=Architects Daughter;fontSource=https%3A%2F%2Ffonts.googleapis.com%2Fcss%3Ffamily%3DArchitects%2BDaughter;fontSize=15;" parent="1" edge="1">
          <mxGeometry width="50" height="50" relative="1" as="geometry">
            <mxPoint x="1275" y="1690" as="sourcePoint" />
            <mxPoint x="1275" y="1650" as="targetPoint" />
          </mxGeometry>
        </mxCell>
        <mxCell id="z1CVZ9yeo8ocnq3t9K6y-131" value="" style="rounded=0;whiteSpace=wrap;html=1;sketch=1;hachureGap=4;jiggle=2;curveFitting=1;fontFamily=Architects Daughter;fontSource=https%3A%2F%2Ffonts.googleapis.com%2Fcss%3Ffamily%3DArchitects%2BDaughter;fontSize=15;fillColor=#ffcc99;strokeColor=#36393d;" parent="1" vertex="1">
          <mxGeometry x="730" y="1530" width="200" height="300" as="geometry" />
        </mxCell>
        <mxCell id="z1CVZ9yeo8ocnq3t9K6y-132" value="Dashboard&lt;br&gt;Service" style="rounded=1;whiteSpace=wrap;html=1;sketch=1;hachureGap=4;jiggle=2;curveFitting=1;fontFamily=Architects Daughter;fontSource=https%3A%2F%2Ffonts.googleapis.com%2Fcss%3Ffamily%3DArchitects%2BDaughter;fontSize=15;fillColor=default;gradientColor=none;" parent="1" vertex="1">
          <mxGeometry x="755" y="1550" width="150" height="100" as="geometry" />
        </mxCell>
        <mxCell id="z1CVZ9yeo8ocnq3t9K6y-133" value="Dashboard Database" style="shape=cylinder3;whiteSpace=wrap;html=1;boundedLbl=1;backgroundOutline=1;size=15;sketch=1;hachureGap=4;jiggle=2;curveFitting=1;strokeColor=default;fontFamily=Architects Daughter;fontSource=https%3A%2F%2Ffonts.googleapis.com%2Fcss%3Ffamily%3DArchitects%2BDaughter;fontSize=15;fillColor=default;gradientColor=none;" parent="1" vertex="1">
          <mxGeometry x="755" y="1690" width="135" height="130" as="geometry" />
        </mxCell>
        <mxCell id="z1CVZ9yeo8ocnq3t9K6y-134" value="" style="endArrow=classic;startArrow=classic;html=1;rounded=0;sketch=1;hachureGap=4;jiggle=2;curveFitting=1;fontFamily=Architects Daughter;fontSource=https%3A%2F%2Ffonts.googleapis.com%2Fcss%3Ffamily%3DArchitects%2BDaughter;fontSize=15;" parent="1" edge="1">
          <mxGeometry width="50" height="50" relative="1" as="geometry">
            <mxPoint x="825" y="1690" as="sourcePoint" />
            <mxPoint x="825" y="1650" as="targetPoint" />
          </mxGeometry>
        </mxCell>
        <mxCell id="z1CVZ9yeo8ocnq3t9K6y-151" value="Outbound events" style="text;html=1;align=center;verticalAlign=middle;resizable=0;points=[];autosize=1;strokeColor=none;fillColor=none;fontSize=17;fontFamily=Architects Daughter;sketch=1;hachureGap=4;jiggle=2;curveFitting=1;fontSource=https%3A%2F%2Ffonts.googleapis.com%2Fcss%3Ffamily%3DArchitects%2BDaughter;" parent="1" vertex="1">
          <mxGeometry x="850" y="1900" width="150" height="30" as="geometry" />
        </mxCell>
        <mxCell id="z1CVZ9yeo8ocnq3t9K6y-156" style="edgeStyle=orthogonalEdgeStyle;rounded=0;sketch=1;hachureGap=4;jiggle=2;curveFitting=1;orthogonalLoop=1;jettySize=auto;html=1;fontFamily=Architects Daughter;fontSource=https%3A%2F%2Ffonts.googleapis.com%2Fcss%3Ffamily%3DArchitects%2BDaughter;fontSize=17;" parent="1" source="z1CVZ9yeo8ocnq3t9K6y-153" edge="1">
          <mxGeometry relative="1" as="geometry">
            <mxPoint x="810" y="1400" as="targetPoint" />
          </mxGeometry>
        </mxCell>
        <mxCell id="z1CVZ9yeo8ocnq3t9K6y-153" value="" style="shape=cylinder3;whiteSpace=wrap;html=1;boundedLbl=1;backgroundOutline=1;size=15;sketch=0;hachureGap=4;jiggle=2;curveFitting=1;strokeColor=default;fontFamily=Architects Daughter;fontSource=https%3A%2F%2Ffonts.googleapis.com%2Fcss%3Ffamily%3DArchitects%2BDaughter;fontSize=17;fillColor=default;gradientColor=none;direction=south;" parent="1" vertex="1">
          <mxGeometry x="1030" y="1320" width="140" height="30" as="geometry" />
        </mxCell>
        <mxCell id="z1CVZ9yeo8ocnq3t9K6y-154" value="Inbound events" style="text;html=1;align=center;verticalAlign=middle;resizable=0;points=[];autosize=1;strokeColor=none;fillColor=none;fontSize=17;fontFamily=Architects Daughter;sketch=1;hachureGap=4;jiggle=2;curveFitting=1;fontSource=https%3A%2F%2Ffonts.googleapis.com%2Fcss%3Ffamily%3DArchitects%2BDaughter;" parent="1" vertex="1">
          <mxGeometry x="850" y="1310" width="140" height="30" as="geometry" />
        </mxCell>
        <mxCell id="z1CVZ9yeo8ocnq3t9K6y-166" value="" style="endArrow=classic;html=1;rounded=0;sketch=1;hachureGap=4;jiggle=2;curveFitting=1;fontFamily=Architects Daughter;fontSource=https%3A%2F%2Ffonts.googleapis.com%2Fcss%3Ffamily%3DArchitects%2BDaughter;fontSize=17;entryX=-0.042;entryY=0.377;entryDx=0;entryDy=0;entryPerimeter=0;" parent="1" target="z1CVZ9yeo8ocnq3t9K6y-84" edge="1">
          <mxGeometry width="50" height="50" relative="1" as="geometry">
            <mxPoint x="40" y="1625" as="sourcePoint" />
            <mxPoint x="90" y="1575" as="targetPoint" />
          </mxGeometry>
        </mxCell>
        <mxCell id="z1CVZ9yeo8ocnq3t9K6y-167" value="" style="endArrow=classic;html=1;rounded=0;sketch=1;hachureGap=4;jiggle=2;curveFitting=1;fontFamily=Architects Daughter;fontSource=https%3A%2F%2Ffonts.googleapis.com%2Fcss%3Ffamily%3DArchitects%2BDaughter;fontSize=17;entryX=-0.006;entryY=0.577;entryDx=0;entryDy=0;entryPerimeter=0;" parent="1" target="z1CVZ9yeo8ocnq3t9K6y-77" edge="1">
          <mxGeometry width="50" height="50" relative="1" as="geometry">
            <mxPoint x="40" y="1622.38" as="sourcePoint" />
            <mxPoint x="76.42999999999995" y="1700" as="targetPoint" />
          </mxGeometry>
        </mxCell>
        <mxCell id="ueEnSAnC5jxVS8nruKDC-1" value="&lt;font style=&quot;&quot;&gt;&lt;b style=&quot;&quot;&gt;&lt;font style=&quot;font-size: 26px;&quot;&gt;Trip Management Subsystem&lt;/font&gt;&lt;/b&gt;&lt;br&gt;The Trip Management subsystem is composed of a microservices architecture&amp;nbsp;&lt;br&gt;&lt;/font&gt;" style="text;html=1;strokeColor=default;fillColor=#CCFFFF;align=center;verticalAlign=middle;whiteSpace=wrap;rounded=0;sketch=1;hachureGap=4;fontFamily=Architects Daughter;fontSource=https%3A%2F%2Ffonts.googleapis.com%2Fcss%3Ffamily%3DArchitects%2BDaughter;fontSize=20;" vertex="1" parent="1">
          <mxGeometry x="535" y="1160" width="995" height="100" as="geometry" />
        </mxCell>
        <mxCell id="ueEnSAnC5jxVS8nruKDC-2" value="A set of Backend For Frontend adapters that handle requests from clients to the backend service." style="shape=note;whiteSpace=wrap;html=1;backgroundOutline=1;darkOpacity=0.05;sketch=1;hachureGap=4;jiggle=2;curveFitting=1;fontFamily=Architects Daughter;fontSource=https%3A%2F%2Ffonts.googleapis.com%2Fcss%3Ffamily%3DArchitects%2BDaughter;fontSize=20;align=left;fillColor=#CCFFFF;" vertex="1" parent="1">
          <mxGeometry x="100" y="1860" width="360" height="110" as="geometry" />
        </mxCell>
        <mxCell id="ueEnSAnC5jxVS8nruKDC-3" value="Inbound events would come from the data integration subsystem and represent flight bookings, hotel bookings et..c&lt;br style=&quot;border-color: var(--border-color); font-size: 17px; text-align: center;&quot;&gt;&lt;br style=&quot;border-color: var(--border-color); font-size: 17px; text-align: center;&quot;&gt;&lt;span style=&quot;font-size: 17px; text-align: center;&quot;&gt;&amp;nbsp;Outbound events would go to the reporting and analytics subsystem , and also fed to the data integration subsystem to be sent to external interested parties&lt;/span&gt;" style="shape=note;whiteSpace=wrap;html=1;backgroundOutline=1;darkOpacity=0.05;sketch=1;hachureGap=4;jiggle=2;curveFitting=1;fontFamily=Architects Daughter;fontSource=https%3A%2F%2Ffonts.googleapis.com%2Fcss%3Ffamily%3DArchitects%2BDaughter;fontSize=20;align=left;fillColor=#CCFFFF;" vertex="1" parent="1">
          <mxGeometry x="535" y="1970" width="875" height="130" as="geometry" />
        </mxCell>
      </root>
    </mxGraphModel>
  </diagram>
</mxfile>
